<?xml version="1.0" encoding="UTF-8"?>
<svg id="Layer_2" data-name="Layer 2" xmlns="http://www.w3.org/2000/svg" viewBox="0 0 976.9 216.3">
  <defs>
    <style>
      .cls-1 {
        fill: none;
      }

      .cls-1, .cls-2 {
        fill-rule: evenodd;
      }
    </style>
  </defs>
  <g id="Layer_2-2" data-name="Layer 2">
    <g id="Layer_1-2" data-name="Layer 1-2">
      <g>
        <path class="cls-2" d="m86.1,13.9h40.5c8.8,0,15.4,2.1,19.8,6.3,4.4,4.2,6.6,10.2,6.6,18s-2.4,14.2-7.2,18.7-12.1,6.7-21.9,6.7h-13.4v29.2h-24.5V13.9h.1Zm90,40.3l-20.9-2.2c.8-3.7,1.9-6.6,3.4-8.6,1.5-2.1,3.6-3.9,6.4-5.5,2-1.1,4.8-2,8.3-2.6s7.3-.9,11.4-.9c6.5,0,11.8.4,15.8,1.1,4,.7,7.3,2.3,9.9,4.6,1.9,1.6,3.3,3.9,4.4,6.9,1.1,3,1.6,5.8,1.6,8.5v25.3c0,2.7.2,4.8.5,6.3s1.1,3.5,2.2,5.8h-20.5c-.8-1.5-1.4-2.6-1.6-3.3-.2-.8-.5-2-.8-3.6-2.9,2.8-5.7,4.7-8.5,5.9-3.9,1.6-8.4,2.4-13.5,2.4-6.8,0-12-1.6-15.5-4.8-3.5-3.2-5.3-7.1-5.3-11.7,0-4.3,1.3-7.9,3.8-10.7s7.2-4.9,14.1-6.3c8.2-1.7,13.5-2.8,16-3.5,2.4-.7,5-1.5,7.8-2.6,0-2.7-.6-4.6-1.7-5.7-1.1-1.1-3-1.6-5.8-1.6-3.6,0-6.3.6-8.1,1.7-1.4.9-2.6,2.6-3.4,5.1h0Zm19,11.4c-3,1.1-6.2,2-9.4,2.9-4.4,1.2-7.3,2.4-8.4,3.5-1.2,1.2-1.8,2.6-1.8,4.1,0,1.7.6,3.2,1.8,4.3,1.2,1.1,3,1.7,5.3,1.7s4.7-.6,6.8-1.8c2.1-1.2,3.6-2.6,4.5-4.4.9-1.7,1.3-4,1.3-6.7l-.1-3.6h0Zm28.3-30h20.5v9.4c2-4.1,4-6.8,6.1-8.4,2.1-1.5,4.7-2.3,7.8-2.3s6.8,1,10.6,3l-6.8,15.5c-2.6-1.1-4.6-1.6-6.1-1.6-2.9,0-5.1,1.2-6.7,3.6-2.3,3.3-3.4,9.6-3.4,18.8v19.2h-22v-57.2h0Zm106,57.2h-20.5v-9.2c-3.1,3.8-6.1,6.5-9.2,8.1-3.1,1.6-6.9,2.4-11.4,2.4-6,0-10.7-1.8-14.1-5.4-3.4-3.6-5.1-9.2-5.1-16.7v-36.4h22v31.5c0,3.6.7,6.1,2,7.7,1.3,1.5,3.2,2.3,5.6,2.3,2.6,0,4.7-1,6.4-3s2.5-5.6,2.5-10.8v-27.6h21.9v57.1h-.1Zm7.7-78.9h21.9v78.9h-21.9V13.9h0Zm52.4-9.6c3.4,0,6.7.9,10,2.6,3.2,1.7,5.8,4.2,7.6,7.5s2.7,6.7,2.7,10.2-.9,6.9-2.7,10.1c-1.8,3.2-4.3,5.7-7.5,7.5s-6.6,2.7-10.1,2.7-6.9-.9-10.1-2.7c-3.2-1.8-5.7-4.3-7.5-7.5s-2.7-6.6-2.7-10.1.9-6.9,2.7-10.2c1.8-3.2,4.4-5.8,7.6-7.5,3.3-1.8,6.6-2.6,10-2.6h0Zm0,3.3c-2.8,0-5.6.7-8.3,2.2s-4.8,3.6-6.3,6.3-2.3,5.5-2.3,8.5.8,5.7,2.2,8.4c1.5,2.7,3.6,4.8,6.3,6.3s5.5,2.2,8.4,2.2,5.7-.8,8.4-2.2c2.7-1.5,4.8-3.6,6.3-6.3s2.2-5.5,2.2-8.4-.8-5.8-2.3-8.5-3.6-4.8-6.3-6.3c-2.7-1.4-5.4-2.2-8.3-2.2h0Zm-8.9,28.2h3.5v-9.2h2.1c1.2,0,2.2.2,2.8.7.9.7,2.2,2.4,3.7,5.1l2,3.4h4.3l-2.7-4.3c-1.3-2-2.3-3.5-3.2-4.3-.5-.5-1.1-.8-1.9-1.2,1.9-.1,3.4-.8,4.5-2,1.2-1.2,1.7-2.6,1.7-4.2,0-1.1-.3-2.2-1-3.2s-1.6-1.7-2.8-2.1c-1.2-.4-3-.6-5.6-.6h-7.5l.1,21.9h0Zm3.5-12.3h4.3c2,0,3.4-.3,4.2-.9.7-.6,1.1-1.4,1.1-2.4,0-.6-.2-1.2-.5-1.7-.4-.5-.9-.9-1.5-1.1-.7-.2-1.8-.4-3.6-.4h-4v6.5h0ZM48.1,116.7h9.8v42.6c0,7.4-.8,13.3-2.5,17.6-1.7,4.4-4.7,7.9-9.1,10.6-4.4,2.7-10.1,4.1-17.2,4.1s-12.5-1.2-16.9-3.6c-4.4-2.4-7.5-5.8-9.4-10.3s-2.8-10.6-2.8-18.5v-42.6h9.7v42.5c0,6.4.6,11.1,1.8,14.1s3.2,5.4,6.1,7c2.9,1.6,6.4,2.5,10.6,2.5,7.2,0,12.3-1.6,15.3-4.9,3-3.2,4.6-9.5,4.6-18.7v-42.4h0Zm25.1,73.7v-53.4h8.1v7.6c3.9-5.9,9.6-8.8,17-8.8,3.2,0,6.2.6,8.9,1.7,2.7,1.2,4.7,2.7,6.1,4.6,1.4,1.9,2.3,4.1,2.8,6.7.3,1.7.5,4.6.5,8.8v32.8h-9v-32.5c0-3.7-.3-6.4-1-8.3-.7-1.8-2-3.3-3.7-4.4-1.8-1.1-3.9-1.6-6.3-1.6-3.9,0-7.2,1.2-10,3.7-2.8,2.4-4.2,7.1-4.2,13.9v29.1l-9.2.1h0Zm57.5-73.7h9.1v10.4h-9.1v-10.4Zm0,20.3h9.1v53.4h-9.1v-53.4Zm38,53.4l-20.3-53.4h9.5l11.5,31.9c1.2,3.4,2.4,7,3.4,10.8.8-2.8,1.9-6.2,3.4-10.1l11.9-32.6h9.3l-20.2,53.4h-8.5Zm73.4-17.2l9.3,1.1c-1.5,5.5-4.2,9.7-8.2,12.7s-9.1,4.5-15.3,4.5c-7.8,0-14-2.4-18.5-7.2-4.6-4.8-6.9-11.5-6.9-20.2s2.3-15.9,6.9-20.9c4.6-5,10.6-7.4,18-7.4s13,2.4,17.5,7.3c4.5,4.9,6.8,11.7,6.8,20.5,0,.6,0,1.4-.1,2.4h-39.8c.3,5.9,2,10.4,5,13.5s6.7,4.7,11.1,4.7c3.3,0,6.1-.9,8.5-2.6,2.5-1.8,4.4-4.6,5.7-8.4h0Zm-29.6-14.6h29.8c-.4-4.5-1.5-7.9-3.4-10.1-2.9-3.5-6.6-5.2-11.2-5.2-4.1,0-7.6,1.4-10.5,4.2-2.9,2.7-4.4,6.4-4.7,11.1Zm50.6,31.8v-53.4h8.1v8.1c2.1-3.8,4-6.3,5.8-7.5s3.7-1.8,5.8-1.8c3,0,6.1,1,9.3,2.9l-3.1,8.4c-2.2-1.3-4.4-2-6.6-2-2,0-3.8.6-5.3,1.8-1.6,1.2-2.7,2.9-3.4,5-1,3.2-1.5,6.7-1.5,10.6v27.9h-9.1Zm31-15.9l8.9-1.4c.5,3.6,1.9,6.3,4.2,8.2s5.5,2.9,9.6,2.9,7.2-.9,9.2-2.5c2-1.7,3-3.7,3-5.9s-.9-3.6-2.7-4.8c-1.2-.8-4.3-1.8-9.2-3.1-6.6-1.7-11.2-3.1-13.8-4.4-2.5-1.2-4.5-2.9-5.8-5.1-1.3-2.2-2-4.5-2-7.1,0-2.4.6-4.6,1.7-6.6,1.1-2,2.6-3.7,4.4-5.1,1.4-1,3.3-1.9,5.8-2.6,2.4-.7,5-1.1,7.8-1.1,4.2,0,7.8.6,11,1.8s5.5,2.8,7,4.9c1.5,2.1,2.5,4.8,3.1,8.3l-8.8,1.2c-.4-2.8-1.6-4.9-3.5-6.4-1.9-1.6-4.7-2.3-8.2-2.3-4.2,0-7.1.7-8.9,2.1-1.8,1.4-2.7,3-2.7,4.8,0,1.2.4,2.2,1.1,3.2.7,1,1.9,1.8,3.5,2.4.9.3,3.6,1.1,8,2.3,6.4,1.7,10.9,3.1,13.4,4.2,2.5,1.1,4.5,2.7,6,4.8,1.4,2.1,2.2,4.6,2.2,7.7s-.9,5.9-2.6,8.5c-1.8,2.7-4.3,4.7-7.6,6.2s-7.1,2.2-11.2,2.2c-6.9,0-12.2-1.4-15.9-4.3-3.7-3.1-6-7.4-7-13h0Zm55.4-57.8h9v10.4h-9v-10.4Zm0,20.3h9v53.4h-9v-53.4Zm42.9,45.3l1.3,8c-2.5.5-4.8.8-6.8.8-3.3,0-5.8-.5-7.6-1.6-1.8-1-3.1-2.4-3.8-4.1-.7-1.7-1.1-5.2-1.1-10.7v-30.7h-6.6v-7h6.6v-13.2l9-5.4v18.6h9.1v7h-9.1v31.2c0,2.6.1,4.2.5,5,.3.7.8,1.3,1.6,1.8.7.4,1.8.6,3.1.6.8,0,2.1-.1,3.8-.3h0Zm8.7,28.6l-1-8.5c2,.5,3.7.8,5.2.8,2,0,3.6-.3,4.8-1s2.2-1.6,3-2.8c.6-.9,1.5-3.1,2.8-6.7.2-.5.5-1.2.8-2.2l-20.2-53.5h9.7l11.1,30.9c1.4,3.9,2.7,8,3.9,12.4,1-4.1,2.3-8.2,3.7-12.2l11.4-31.1h9l-20.3,54.3c-2.2,5.9-3.9,9.9-5.1,12.1-1.6,3-3.4,5.2-5.5,6.6-2.1,1.4-4.6,2.1-7.4,2.1-1.8,0-3.7-.4-5.9-1.2h0ZM110.6,47.7h6c4.7,0,8.1-.8,10-2.5,1.9-1.6,2.9-3.7,2.9-6.3s-.8-4.6-2.5-6.3-4.8-2.6-9.4-2.6h-7v17.7h0Z"/>
        <path class="cls-2" d="m815.9,116.1l7-18.1,6.9,18.1h-13.9Zm23.7,25.4h23.7l-28.5-74.3h-23.7l-28.5,74.3h23.7l3.8-9.9h25.8l3.7,9.9h0Zm-18.6-94.3c29.6,0,54.2,21.1,59.8,49h-13.8v18.6h14.7c-3.3,30.6-29.2,54.4-60.6,54.4-33.7,0-61-27.3-61-61s27.2-61,60.9-61h0Z"/>
        <polygon points="922.1 99 902.8 99 902.8 79.3 889.2 79.3 889.2 99 869.8 99 869.8 111.9 889.2 111.9 889.2 131.6 902.8 131.6 902.8 111.9 922.1 111.9 922.1 99"/>
        <polygon points="976.9 99 957.7 99 957.7 79.3 944 79.3 944 99 924.7 99 924.7 111.9 944 111.9 944 131.6 957.7 131.6 957.7 111.9 976.9 111.9 976.9 99"/>
        <path class="cls-1" d="m822.9,98.1l6.9,18.1h-14l7.1-18.1Zm-11.9-30.9l-28.5,74.3h23.7l3.8-9.9h25.8l3.8,9.9h23.7l-28.5-74.3h-23.8Z"/>
        <path d="m720.9,107.6c9.4,0,17.9-4,23.7-10.4l-12.1-10.6c-2.8,3.6-7,5.9-11.7,5.9-8,0-14.8-7-14.8-15.3s6.8-15.2,14.8-15.2c4.6,0,8.8,2.4,11.6,5.9l12.2-10.6c-5.9-6.3-14.4-10.3-23.7-10.3-17.3,0-31.8,13.8-31.8,30.2s14.5,30.4,31.8,30.4h0Zm-72.1-21l5.5-14.2,5.4,14.2h-10.9Zm18.7,20h18.6l-22.5-58.4h-18.6l-22.5,58.4h18.6l3-7.8h20.3l3.1,7.8h0Zm-82.4-20l5.5-14.2,5.4,14.2h-10.9Zm18.7,20h18.6l-22.5-58.4h-18.6l-22.5,58.4h18.6l3-7.8h20.3l3.1,7.8h0Zm-105.9,0h16.5v-31.3l22.8,31.3h16.5v-58.4h-16.5v31.3l-22.8-31.3h-16.5v58.4Z"/>
        <path d="m744.6,124.3v-5.3h-35.4v49.3h35.4v-5.3h-29.8v-17.2h26.8v-5.3h-26.8v-16.2h29.8Zm-83.5,38.9v-39.1h11.1c12.4,0,21.1,8.1,21.1,19.5s-8.7,19.6-21.1,19.6h-11.1Zm-5.7,5.1h16.7c15.7,0,26.7-10.3,26.7-24.7s-11.1-24.6-26.7-24.6h-16.7v49.3Zm-45.3-16.5l11.5-25.9,11.4,25.9h-22.9Zm30.2,16.5h6.1l-21.8-49.3h-6.1l-21.8,49.3h6.1l5-11.2h27.5l5,11.2Zm-81.3-44h13.4c8,0,13.5,3.9,13.5,10.5s-5.5,10.5-13.5,10.5h-13.4v-21Zm32.6,10.5c0-9.3-8-15.8-18.2-15.8h-20.1v49.3h5.6v-17.7h13.1l12.5,17.7h6.4l-12.8-18.2c7.9-1.7,13.5-7.6,13.5-15.3h0Zm-69,12.8h14.2v11.8c-3.7,2.8-9,4.6-13.6,4.6-10.6,0-19.6-9.3-19.6-20.4s9-20.3,19.6-20.3c5.4,0,11.8,2.4,15.4,6.3l3.8-3.9c-4.6-4.7-12.4-7.5-19.2-7.5-13.7,0-25.3,11.6-25.3,25.5s11.6,25.6,25.3,25.6c6.8,0,14.6-2.9,19.2-7.5v-19.3h-19.8v5.1h0Z"/>
        <rect x="469.3" width="1.7" height="216.3"/>
      </g>
    </g>
  </g>
</svg>